{"title":"Naruto Shippuuden 265 mkv 60 mb Bzingaz.mkv","uid":7315971,"size":62458669,"categoryP":"video","categoryS":"tv_shows","magnet":"?xt=urn:btih:eb4135d32f9a64c3baf2e445121c1dcfabc3c742&amp;dn=Naruto+Shippuuden+265+mkv+60+mb+Bzingaz.mkv&amp;tr=udp%3A%2F%2Ftracker.openbittorrent.com%3A80&amp;tr=udp%3A%2F%2Fopen.demonii.com%3A1337&amp;tr=udp%3A%2F%2Ftracker.coppersurfer.tk%3A6969&amp;tr=udp%3A%2F%2Fexodus.desync.com%3A6969","seeders":0,"leechers":0,"uploader":"bzingaz","files":1,"time":1338484655,"description":"Naruto_Shippuuden_265 Eng Subbed BZINGAZ in mkv format 60 mb size.            \n                                                               \n                              Download**Enjoy**Seed\n\n\nNaruto Shippuuden 265 mkv 60 mb Bzingaz.mkv\n\nFormat                           : Matroska\nFile size                        : 59.6 MiB\nDuration                         : 23mn 9s\nOverall bit rate                 : 360 Kbps\n\n\nVideo\nID                               : 2\nFormat                           : AVC\nFormat/Info                      : Advanced Video Codec\nFormat profile                   : &lt;a class=&quot;__cf_email__&quot; href=&quot;/cdn-cgi/l/email-protection&quot; data-cfemail=&quot;753d1c121d3539465b45&quot;&gt;[email&amp;#160;protected]&lt;/a&gt;&lt;script cf-hash='f9e31' type=&quot;text/javascript&quot;&gt;\n/* &lt;![CDATA[ */!function(){try{var t=&quot;currentScript&quot;in document?document.currentScript:function(){for(var t=document.getElementsByTagName(&quot;script&quot;),e=t.length;e--;)if(t[e].getAttribute(&quot;cf-hash&quot;))return t[e]}();if(t&amp;&amp;t.previousSibling){var e,r,n,i,c=t.previousSibling,a=c.getAttribute(&quot;data-cfemail&quot;);if(a){for(e=&quot;&quot;,r=parseInt(a.substr(0,2),16),n=2;a.length-n;n+=2)i=parseInt(a.substr(n,2),16)^r,e+=String.fromCharCode(i);e=document.createTextNode(e),c.parentNode.replaceChild(e,c)}}}catch(u){}}();/* ]]&gt; */&lt;/script&gt;\nFormat settings, CABAC           : Yes\nFormat settings, ReFrames        : 4 frames\nMuxing mode                      : Header stripping\nCodec ID                         : V_MPEG4/ISO/AVC\nDuration                         : 23mn 9s\nBit rate                         : 299 Kbps\nWidth                            : 848 pixels\nHeight                           : 480 pixels\nDisplay aspect ratio             : 16:9\nFrame rate                       : 23.810 fps\nColor space                      : YUV\nChroma subsampling               : 4:2:0\nBit depth                        : 8 bits\nScan type                        : Progressive\nBits/(Pixel*Frame)               : 0.031\nStream size                      : 47.8 MiB (80%)\n\nAudio\nID                               : 3\nFormat                           : Vorbis\nFormat settings, Floor           : 1\nCodec ID                         : A_VORBIS\nDuration                         : 23mn 9s\nBit rate mode                    : Constant\nBit rate                         : 64.0 Kbps\nChannel(s)                       : 2 channels\nSampling rate                    : 44.1 KHz\nCompression mode                 : Lossy\nStream size                      : 10.6 MiB (18%)\nWriting library                  : aoTuV 20110424 (UTC 2011-04-24)\n\nText\nID                               : 1\nFormat                           : ASS\nCodec ID                         : S_TEXT/ASS\nCodec ID/Info                    : Advanced Sub Station Alpha\nCompression mode                 : Lossless\n","torrent":{"xt":"urn:btih:eb4135d32f9a64c3baf2e445121c1dcfabc3c742","amp;dn":"Naruto+Shippuuden+265+mkv+60+mb+Bzingaz.mkv","amp;tr":["udp%3A%2F%2Ftracker.openbittorrent.com%3A80","udp%3A%2F%2Fopen.demonii.com%3A1337","udp%3A%2F%2Ftracker.coppersurfer.tk%3A6969","udp%3A%2F%2Fexodus.desync.com%3A6969"],"infoHash":"eb4135d32f9a64c3baf2e445121c1dcfabc3c742","infoHashBuffer":{"type":"Buffer","data":[235,65,53,211,47,154,100,195,186,242,228,69,18,28,29,207,171,195,199,66]},"announce":[],"urlList":[]}}